# xmcd
#
# Track frame offsets:
# 150
# 16607
# 37922
# 58804
# 79645
# 97778
# 118896
# 134589
# 152739
# 177052
# 195920
# 226629
#
# Disc length: 3563 seconds
#
#
# Revision: 0
# Processed by: cddbd v1.5.1PL0 Copyright (c) Steve Scherf et al.
# Submitted via: FreeRIP 2.80 
#
DISCID=820de90c
DTITLE=Winter - Million Miles
DYEAR=2002
DGENRE=Rock
TTITLE0=Million Miles
TTITLE1=Wild Child
TTITLE2=On A Train
TTITLE3=In Need
TTITLE4=Happy
TTITLE5=What If I See You
TTITLE6=When Everything Was Right
TTITLE7=Waterfalls
TTITLE8=Trespass
TTITLE9=Here I Go
TTITLE10=He Won't Tell Me
TTITLE11=DATA
EXTD=Produced by Malcolm Burn.
EXTT0=
EXTT1=
EXTT2=
EXTT3=
EXTT4=
EXTT5=
EXTT6=
EXTT7=
EXTT8=
EXTT9=
EXTT10=
EXTT11=
PLAYORDER=
